<svg xmlns="http://www.w3.org/2000/svg" width="129" height="125" viewBox="0 0 129 125">
    <defs>
        <style>
            .cls-1{fill:none}.cls-2{clip-path:url(#clip-path)}.cls-3{fill:#4badf8}
        </style>
        <clipPath id="clip-path">
            <path d="M0 0h125v129H0z" class="cls-1"/>
        </clipPath>
    </defs>
    <g id="Repeat_Grid_2" class="cls-2" data-name="Repeat Grid 2">
        <g transform="rotate(-90 -376 951)">
            <circle id="Ellipse_10" cx="4" cy="4" r="4" class="cls-3" data-name="Ellipse 10" transform="translate(450 1327)"/>
        </g>
        <g transform="rotate(-90 -390 937)">
            <circle id="Ellipse_10-2" cx="4" cy="4" r="4" class="cls-3" data-name="Ellipse 10" transform="translate(450 1327)"/>
        </g>
        <g transform="rotate(-90 -404 923)">
            <circle id="Ellipse_10-3" cx="4" cy="4" r="4" class="cls-3" data-name="Ellipse 10" transform="translate(450 1327)"/>
        </g>
        <g transform="rotate(-90 -418 909)">
            <circle id="Ellipse_10-4" cx="4" cy="4" r="4" class="cls-3" data-name="Ellipse 10" transform="translate(450 1327)"/>
        </g>
        <g transform="rotate(-90 -432 895)">
            <circle id="Ellipse_10-5" cx="4" cy="4" r="4" class="cls-3" data-name="Ellipse 10" transform="translate(450 1327)"/>
        </g>
        <g transform="rotate(-90 -362 937)">
            <circle id="Ellipse_10-6" cx="4" cy="4" r="4" class="cls-3" data-name="Ellipse 10" transform="translate(450 1327)"/>
        </g>
        <g transform="rotate(-90 -376 923)">
            <circle id="Ellipse_10-7" cx="4" cy="4" r="4" class="cls-3" data-name="Ellipse 10" transform="translate(450 1327)"/>
        </g>
        <g transform="rotate(-90 -390 909)">
            <circle id="Ellipse_10-8" cx="4" cy="4" r="4" class="cls-3" data-name="Ellipse 10" transform="translate(450 1327)"/>
        </g>
        <g transform="rotate(-90 -404 895)">
            <circle id="Ellipse_10-9" cx="4" cy="4" r="4" class="cls-3" data-name="Ellipse 10" transform="translate(450 1327)"/>
        </g>
        <g transform="rotate(-90 -418 881)">
            <circle id="Ellipse_10-10" cx="4" cy="4" r="4" class="cls-3" data-name="Ellipse 10" transform="translate(450 1327)"/>
        </g>
        <g transform="rotate(-90 -348 923)">
            <circle id="Ellipse_10-11" cx="4" cy="4" r="4" class="cls-3" data-name="Ellipse 10" transform="translate(450 1327)"/>
        </g>
        <g transform="rotate(-90 -362 909)">
            <circle id="Ellipse_10-12" cx="4" cy="4" r="4" class="cls-3" data-name="Ellipse 10" transform="translate(450 1327)"/>
        </g>
        <g transform="rotate(-90 -376 895)">
            <circle id="Ellipse_10-13" cx="4" cy="4" r="4" class="cls-3" data-name="Ellipse 10" transform="translate(450 1327)"/>
        </g>
        <g transform="rotate(-90 -390 881)">
            <circle id="Ellipse_10-14" cx="4" cy="4" r="4" class="cls-3" data-name="Ellipse 10" transform="translate(450 1327)"/>
        </g>
        <g transform="rotate(-90 -404 867)">
            <circle id="Ellipse_10-15" cx="4" cy="4" r="4" class="cls-3" data-name="Ellipse 10" transform="translate(450 1327)"/>
        </g>
        <g transform="rotate(-90 -334 909)">
            <circle id="Ellipse_10-16" cx="4" cy="4" r="4" class="cls-3" data-name="Ellipse 10" transform="translate(450 1327)"/>
        </g>
        <g transform="rotate(-90 -348 895)">
            <circle id="Ellipse_10-17" cx="4" cy="4" r="4" class="cls-3" data-name="Ellipse 10" transform="translate(450 1327)"/>
        </g>
        <g transform="rotate(-90 -362 881)">
            <circle id="Ellipse_10-18" cx="4" cy="4" r="4" class="cls-3" data-name="Ellipse 10" transform="translate(450 1327)"/>
        </g>
        <g transform="rotate(-90 -376 867)">
            <circle id="Ellipse_10-19" cx="4" cy="4" r="4" class="cls-3" data-name="Ellipse 10" transform="translate(450 1327)"/>
        </g>
        <g transform="rotate(-90 -390 853)">
            <circle id="Ellipse_10-20" cx="4" cy="4" r="4" class="cls-3" data-name="Ellipse 10" transform="translate(450 1327)"/>
        </g>
        <g transform="rotate(-90 -320 895)">
            <circle id="Ellipse_10-21" cx="4" cy="4" r="4" class="cls-3" data-name="Ellipse 10" transform="translate(450 1327)"/>
        </g>
        <g transform="rotate(-90 -334 881)">
            <circle id="Ellipse_10-22" cx="4" cy="4" r="4" class="cls-3" data-name="Ellipse 10" transform="translate(450 1327)"/>
        </g>
        <g transform="rotate(-90 -348 867)">
            <circle id="Ellipse_10-23" cx="4" cy="4" r="4" class="cls-3" data-name="Ellipse 10" transform="translate(450 1327)"/>
        </g>
        <g transform="rotate(-90 -362 853)">
            <circle id="Ellipse_10-24" cx="4" cy="4" r="4" class="cls-3" data-name="Ellipse 10" transform="translate(450 1327)"/>
        </g>
        <g transform="rotate(-90 -376 839)">
            <circle id="Ellipse_10-25" cx="4" cy="4" r="4" class="cls-3" data-name="Ellipse 10" transform="translate(450 1327)"/>
        </g>
    </g>
</svg>
