<svg xmlns="http://www.w3.org/2000/svg" id="Group_790" width="22.321" height="22.442" data-name="Group 790" viewBox="0 0 22.321 22.442">
    <defs>
        <style>
            .cls-1{fill:#3173bf}
        </style>
    </defs>
    <path id="Path_466" d="M523.531-144.27v.048a4.584 4.584 0 0 0-2.389-.664 4.53 4.53 0 0 0-1.285.181 6.906 6.906 0 0 0-3.2-5.393 7.245 7.245 0 0 0-1.243-.621 3.254 3.254 0 0 1-2.437 1.092 3.254 3.254 0 0 1-2.437-1.092 3.231 3.231 0 0 1-.833-2.172 3.25 3.25 0 0 1 .38-1.526 3.257 3.257 0 0 1 2.89-1.743 3.264 3.264 0 0 1 2.89 1.743 9.77 9.77 0 0 1 1.641.621 10.539 10.539 0 0 1 6.023 9.526z" class="cls-1" data-name="Path 466" transform="translate(-502.085 156.16)"/>
    <path id="Path_467" d="M522.39-131.956a3.267 3.267 0 0 1-3.264 3.27 2.564 2.564 0 0 1-.483-.042 10 10 0 0 1-1.182 1.08 10.524 10.524 0 0 1-6.5 2.238 10.54 10.54 0 0 1-6.334-2.105A4.607 4.607 0 0 0 507.52-130a6.813 6.813 0 0 0 3.445.929 6.879 6.879 0 0 0 3.867-1.188 6.672 6.672 0 0 0 1.116-.947 3.108 3.108 0 0 1-.091-.754 3.261 3.261 0 0 1 1.918-2.974 3.251 3.251 0 0 1 1.351-.29 3.254 3.254 0 0 1 2.262.9v.006a3.26 3.26 0 0 1 1.002 2.362z" class="cls-1" data-name="Path 467" transform="translate(-500.069 147.852)"/>
    <path id="Path_468" d="M503.6-138.709a3.2 3.2 0 0 1-.211 1.152 3.26 3.26 0 0 1-3.053 2.117h-.018a3.272 3.272 0 0 1-3.252-3.27 3.229 3.229 0 0 1 .573-1.84v-.006a9.12 9.12 0 0 1-.217-1.737c-.012-.139-.012-.284-.012-.422a10.539 10.539 0 0 1 6.021-9.526 4.514 4.514 0 0 0-.09.9 4.57 4.57 0 0 0 .941 2.793 6.89 6.89 0 0 0-3.191 5.279 5.481 5.481 0 0 0-.024.549 6.449 6.449 0 0 0 .054.839 3.262 3.262 0 0 1 2.479 3.172z" class="cls-1" data-name="Path 468" transform="translate(-497.07 154.605)"/>
</svg>
