<svg xmlns="http://www.w3.org/2000/svg" width="14.175" height="10.508" viewBox="0 0 14.175 10.508">
    <defs>
        <style>
            .cls-1{fill:#fff}
        </style>
    </defs>
    <g id="Group_808" data-name="Group 808" transform="translate(-1619.61 -637)">
        <path id="Path_465" d="M1619.61 645.53v-5.3l7.088 3.776 7.078-3.776.007 5.3a1.977 1.977 0 0 1-1.977 1.98h-10.217a1.978 1.978 0 0 1-1.979-1.98zm14.175-7.087l-.534.277-6.554 3.49-6.554-3.49-.534-.277v-.427a1.016 1.016 0 0 1 1.016-1.016h12.143a1.016 1.016 0 0 1 1.016 1.016z" class="cls-1" data-name="Path 465"/>
        <path id="Path_459" d="M1631.805 647.545h-10.217a1.978 1.978 0 0 1-1.978-1.978v-5.3l7.088 3.776 7.078-3.776.007 5.3a1.977 1.977 0 0 1-1.978 1.978z" class="cls-1" data-name="Path 459" transform="translate(0 -.038)"/>
        <path id="Path_460" d="M1632.769 637a1.016 1.016 0 0 1 1.016 1.016v.427l-.534.277-6.554 3.49-6.554-3.49-.534-.277v-.427a1.016 1.016 0 0 1 1.016-1.016z" class="cls-1" data-name="Path 460"/>
    </g>
</svg>
