<svg xmlns="http://www.w3.org/2000/svg" id="Group_791" width="21.914" height="17.978" data-name="Group 791" viewBox="0 0 21.914 17.978">
    <defs>
        <style>
            .cls-1{fill:#23c337}
        </style>
    </defs>
    <path id="Path_470" d="M1153.249 796l-8.818-15.847a.942.942 0 0 0-.4-.414 1.061 1.061 0 0 0-1.447.414l-5.376 9.669h-4.318v1.878h3.272l-2.384 4.3a1.115 1.115 0 0 0-.134.523 1.059 1.059 0 0 0 1.058 1.058h17.611a1.113 1.113 0 0 0 .523-.134 1.074 1.074 0 0 0 .413-1.447zm-9.4-2.092a3.147 3.147 0 0 1-2.992-2.2h-2.757l.961-1.885h1.8a3.143 3.143 0 1 1 2.992 4.086z" class="cls-1" data-name="Path 470" transform="translate(-1131.467 -779.598)"/>
    <path id="Path_471" d="M1133.143 788v1.885h-.474a.943.943 0 1 1 0-1.885z" class="cls-1" data-name="Path 471" transform="translate(-1131.72 -777.781)"/>
</svg>
