<svg xmlns="http://www.w3.org/2000/svg" id="facebook" width="14.567" height="14.567" viewBox="0 0 14.567 14.567">
    <defs>
        <style>
            .cls-1{fill:#626f7e}
        </style>
    </defs>
    <g id="Group_770" data-name="Group 770">
        <path id="Path_451" d="M12.746 0H1.821A1.823 1.823 0 0 0 0 1.821v10.925a1.823 1.823 0 0 0 1.821 1.821h5.463V9.559H5.463V7.283h1.821V5.462a2.731 2.731 0 0 1 2.731-2.731h1.821v2.276h-.91c-.5 0-.91-.047-.91.455v1.821h2.276l-.91 2.276h-1.367v5.007h2.731a1.823 1.823 0 0 0 1.821-1.821V1.821A1.823 1.823 0 0 0 12.746 0z" class="cls-1" data-name="Path 451"/>
    </g>
</svg>
