<svg xmlns="http://www.w3.org/2000/svg" viewBox="0 0 72 155">
    <defs>
        <style>
            .cls-1{fill:none}.cls-2{clip-path:url(#clip-path)}.cls-3{fill:#ecf2fa}
        </style>
        <clipPath id="clip-path">
            <path d="M0 0h155v72H0z" class="cls-1"/>
        </clipPath>
    </defs>
    <g id="Repeat_Grid_3" class="cls-2" data-name="Repeat Grid 3">
        <g transform="rotate(-90 -361 966)">
            <circle id="Ellipse_10" cx="4" cy="4" r="4" class="cls-3" data-name="Ellipse 10" transform="translate(450 1327)"/>
        </g>
        <g transform="rotate(-90 -375 952)">
            <circle id="Ellipse_10-2" cx="4" cy="4" r="4" class="cls-3" data-name="Ellipse 10" transform="translate(450 1327)"/>
        </g>
        <g transform="rotate(-90 -389 938)">
            <circle id="Ellipse_10-3" cx="4" cy="4" r="4" class="cls-3" data-name="Ellipse 10" transform="translate(450 1327)"/>
        </g>
        <g transform="rotate(-90 -403 924)">
            <circle id="Ellipse_10-4" cx="4" cy="4" r="4" class="cls-3" data-name="Ellipse 10" transform="translate(450 1327)"/>
        </g>
        <g transform="rotate(-90 -417 910)">
            <circle id="Ellipse_10-5" cx="4" cy="4" r="4" class="cls-3" data-name="Ellipse 10" transform="translate(450 1327)"/>
        </g>
        <g transform="rotate(-90 -431 896)">
            <circle id="Ellipse_10-6" cx="4" cy="4" r="4" class="cls-3" data-name="Ellipse 10" transform="translate(450 1327)"/>
        </g>
        <g transform="rotate(-90 -347 952)">
            <circle id="Ellipse_10-7" cx="4" cy="4" r="4" class="cls-3" data-name="Ellipse 10" transform="translate(450 1327)"/>
        </g>
        <g transform="rotate(-90 -361 938)">
            <circle id="Ellipse_10-8" cx="4" cy="4" r="4" class="cls-3" data-name="Ellipse 10" transform="translate(450 1327)"/>
        </g>
        <g transform="rotate(-90 -375 924)">
            <circle id="Ellipse_10-9" cx="4" cy="4" r="4" class="cls-3" data-name="Ellipse 10" transform="translate(450 1327)"/>
        </g>
        <g transform="rotate(-90 -389 910)">
            <circle id="Ellipse_10-10" cx="4" cy="4" r="4" class="cls-3" data-name="Ellipse 10" transform="translate(450 1327)"/>
        </g>
        <g transform="rotate(-90 -403 896)">
            <circle id="Ellipse_10-11" cx="4" cy="4" r="4" class="cls-3" data-name="Ellipse 10" transform="translate(450 1327)"/>
        </g>
        <g transform="rotate(-90 -417 882)">
            <circle id="Ellipse_10-12" cx="4" cy="4" r="4" class="cls-3" data-name="Ellipse 10" transform="translate(450 1327)"/>
        </g>
        <g transform="rotate(-90 -333 938)">
            <circle id="Ellipse_10-13" cx="4" cy="4" r="4" class="cls-3" data-name="Ellipse 10" transform="translate(450 1327)"/>
        </g>
        <g transform="rotate(-90 -347 924)">
            <circle id="Ellipse_10-14" cx="4" cy="4" r="4" class="cls-3" data-name="Ellipse 10" transform="translate(450 1327)"/>
        </g>
        <g transform="rotate(-90 -361 910)">
            <circle id="Ellipse_10-15" cx="4" cy="4" r="4" class="cls-3" data-name="Ellipse 10" transform="translate(450 1327)"/>
        </g>
        <g transform="rotate(-90 -375 896)">
            <circle id="Ellipse_10-16" cx="4" cy="4" r="4" class="cls-3" data-name="Ellipse 10" transform="translate(450 1327)"/>
        </g>
        <g transform="rotate(-90 -389 882)">
            <circle id="Ellipse_10-17" cx="4" cy="4" r="4" class="cls-3" data-name="Ellipse 10" transform="translate(450 1327)"/>
        </g>
        <g transform="rotate(-90 -403 868)">
            <circle id="Ellipse_10-18" cx="4" cy="4" r="4" class="cls-3" data-name="Ellipse 10" transform="translate(450 1327)"/>
        </g>
    </g>
</svg>
