<svg xmlns="http://www.w3.org/2000/svg" id="instagram" width="15.397" height="15.396" viewBox="0 0 15.397 15.396">
    <defs>
        <style>
            .cls-1{fill:#626f7e}
        </style>
    </defs>
    <g id="Group_772" data-name="Group 772">
        <g id="Group_771" data-name="Group 771">
            <path id="Path_452" d="M10.586 0H4.812A4.812 4.812 0 0 0 0 4.811v5.774A4.812 4.812 0 0 0 4.812 15.4h5.774a4.812 4.812 0 0 0 4.814-4.815V4.811A4.812 4.812 0 0 0 10.586 0zm3.368 10.585a3.372 3.372 0 0 1-3.368 3.368H4.812a3.372 3.372 0 0 1-3.368-3.368V4.811a3.372 3.372 0 0 1 3.368-3.368h5.774a3.372 3.372 0 0 1 3.368 3.368z" class="cls-1" data-name="Path 452"/>
        </g>
    </g>
    <g id="Group_774" data-name="Group 774" transform="translate(3.849 3.849)">
        <g id="Group_773" data-name="Group 773">
            <path id="Path_453" d="M131.849 128a3.849 3.849 0 1 0 3.849 3.849 3.849 3.849 0 0 0-3.849-3.849zm0 6.255a2.406 2.406 0 1 1 2.406-2.406 2.409 2.409 0 0 1-2.406 2.406z" class="cls-1" data-name="Path 453" transform="translate(-128 -128)"/>
        </g>
    </g>
    <g id="Group_776" data-name="Group 776" transform="translate(11.324 3.048)">
        <g id="Group_775" data-name="Group 775">
            <ellipse id="Ellipse_255" cx=".513" cy=".513" class="cls-1" data-name="Ellipse 255" rx=".513" ry=".513"/>
        </g>
    </g>
</svg>
