<svg xmlns="http://www.w3.org/2000/svg" viewBox="0 0 163.291 29.769">
    <defs>
        <style>
            .cls-1{fill:url(#linear-gradient)}.cls-2{fill:#004594}
        </style>
        <linearGradient id="linear-gradient" x2="1" y1=".5" y2=".5" gradientUnits="objectBoundingBox">
            <stop offset="0" stop-color="#9aeffc"/>
            <stop offset="1" stop-color="#54d3e4"/>
        </linearGradient>
    </defs>
    <g id="Group_6" data-name="Group 6" transform="translate(-36.078 -228.546)">
        <path id="Path_12" d="M57.219 231.221L68.3 250.2a5.394 5.394 0 0 1-4.659 8.114h-22.16a5.394 5.394 0 0 1-4.659-8.114l11.08-18.98a5.394 5.394 0 0 1 9.317.001z" class="cls-1" data-name="Path 12"/>
        <g id="Group_4" data-name="Group 4" transform="translate(36.078 228.547)">
            <path id="Path_13" d="M49.76 232.206a5.235 5.235 0 0 0-1.563 1.446 5.172 5.172 0 0 0-.3.453l-8.524 14.6h.033l13.141-.007a.922.922 0 0 0 .795-1.387l-1.8-3.074 1.025-1.754 6.066 10.392-21.674.014h-.033l-.115.194a5.581 5.581 0 0 0-.27.521 5.361 5.361 0 0 0-.466 2.035l24.167-.014 1.637 2.8-21.813.014H36.774l.066.117a5.407 5.407 0 0 0 2.01 1.964 5.347 5.347 0 0 0 2.5.668h.12s22.419-.006 22.544-.016a5.311 5.311 0 0 0 2.264-.668l-1.214-2.084zm-1.4 12.037l-1 1.71H44.2l5.2-8.9 1.579 2.7z" class="cls-2" data-name="Path 13" transform="translate(-36.078 -231.432)"/>
            <path id="Path_14" d="M129.478 250.365l-11.227-19.233a5.338 5.338 0 0 0-4.482-2.583h-.213l.106.185 15.651 26.81.063.106a.7.7 0 0 0 .06-.106 5.325 5.325 0 0 0 .041-5.18z" class="cls-2" data-name="Path 14" transform="translate(-97.169 -228.547)"/>
        </g>
        <g id="Group_5" data-name="Group 5" transform="translate(80.026 235.808)">
            <path id="Path_15" d="M243.862 262.877h6.89c3.261 0 5.637 2.111 5.637 5.137s-2.376 5.137-5.637 5.137h-3.2v4.679h-3.693zm6.544 6.878c1.275 0 2.182-.7 2.182-1.741s-.907-1.741-2.182-1.741h-2.851v3.482z" class="cls-2" data-name="Path 15" transform="translate(-243.862 -262.877)"/>
            <path id="Path_16" d="M318.369 279.136v3.064c-2.268 0-3.65 1.306-3.65 3.374l-.022-.044v5.115h-3.65V279.4h3.65v2.089a4.035 4.035 0 0 1 3.672-2.353z" class="cls-2" data-name="Path 16" transform="translate(-296.837 -275.697)"/>
            <path id="Path_17" d="M349.745 285.013a6.206 6.206 0 1 1 6.2 5.9 6.11 6.11 0 0 1-6.2-5.9zm8.942 0a2.744 2.744 0 1 0-2.743 2.829 2.81 2.81 0 0 0 2.743-2.829z" class="cls-2" data-name="Path 17" transform="translate(-327.35 -275.697)"/>
            <path id="Path_18" d="M423.016 275.653h-5.875l-.864 2.176h-4.147l5.875-14.953h4.147l5.875 14.953h-4.147zm-1.145-2.917l-1.793-4.592-1.793 4.592z" class="cls-2" data-name="Path 18" transform="translate(-376.54 -262.877)"/>
            <path id="Path_19" d="M504.548 280.371v11.252H500.9v-1.284a3.962 3.962 0 0 1-3.283 1.545 4.07 4.07 0 0 1-4.1-4.353v-7.161h3.5v6.33a1.937 1.937 0 1 0 3.866.152l.022.066v-6.551z" class="cls-2" data-name="Path 19" transform="translate(-440.708 -276.671)"/>
            <path id="Path_20" d="M561.4 279.3a4.257 4.257 0 0 1-2.721 1.066 3.444 3.444 0 0 1-3.564-3.613v-4.962h-1.469v-2.941h1.469v-3.091h3.5v3.091h2.311v2.938h-2.311v4.288a1.089 1.089 0 0 0 1.015 1.219 1.537 1.537 0 0 0 1.037-.37z" class="cls-2" data-name="Path 20" transform="translate(-488.128 -265.149)"/>
            <path id="Path_21" d="M596.127 285.013a6.206 6.206 0 1 1 6.2 5.9 6.109 6.109 0 0 1-6.2-5.9zm8.942 0a2.744 2.744 0 1 0-2.743 2.829 2.81 2.81 0 0 0 2.743-2.829z" class="cls-2" data-name="Path 21" transform="translate(-521.619 -275.697)"/>
            <path id="Path_22" d="M681.466 283.489v7.182h-3.5v-6.53a1.827 1.827 0 1 0-3.65-.152v6.682h-3.5v-6.53a1.827 1.827 0 1 0-3.65-.152v6.66h-3.65V279.4h3.65v1.458a3.2 3.2 0 0 1 2.98-1.719 4.072 4.072 0 0 1 3.52 1.937 3.934 3.934 0 0 1 3.607-1.937 4.175 4.175 0 0 1 4.193 4.35z" class="cls-2" data-name="Path 22" transform="translate(-574.757 -275.697)"/>
            <path id="Path_23" d="M767.6 283.968v6.682h-3.521v-.958a4.416 4.416 0 0 1-3.088 1.219c-2.376 0-4.255-1.458-4.255-3.591 0-2.2 2.1-3.744 4.73-3.744a7.206 7.206 0 0 1 2.613.544v-.152c0-1.2-.907-2.068-2.44-2.068a5.688 5.688 0 0 0-2.808.827l-1.145-2.307a10.744 10.744 0 0 1 4.881-1.284 4.683 4.683 0 0 1 5.033 4.832zm-3.521 3.308v-1.2a6.107 6.107 0 0 0-2.095-.37 1.617 1.617 0 0 0-1.771 1.5 1.484 1.484 0 0 0 1.663 1.437 2.066 2.066 0 0 0 2.207-1.367z" class="cls-2" data-name="Path 23" transform="translate(-648.261 -275.697)"/>
        </g>
    </g>
</svg>
