<svg xmlns="http://www.w3.org/2000/svg" width="157.3" height="28.677" viewBox="0 0 157.3 28.677">
    <defs>
        <style>
            .cls-1{fill:#fff}
        </style>
    </defs>
    <g id="Group_801" data-name="Group 801" transform="translate(-27.699 -226.346)">
        <g id="Group_1" data-name="Group 1" transform="translate(27.699 226.346)">
            <path id="Path_1" d="M40.879 230.066a5.041 5.041 0 0 0-1.505 1.393 4.975 4.975 0 0 0-.286.436l-8.211 14.066h.023l12.659-.007a.888.888 0 0 0 .766-1.336l-1.73-2.962.988-1.689 5.844 10.011-20.879.013h-.031l-.11.187a5.362 5.362 0 0 0-.26.5 5.158 5.158 0 0 0-.449 1.96l23.28-.013 1.576 2.7-21.013.013H28.37l.063.113a5.208 5.208 0 0 0 1.937 1.892 5.151 5.151 0 0 0 2.412.644h.116s21.6-.005 21.717-.016a5.117 5.117 0 0 0 2.181-.644l-1.169-2.007zm-1.351 11.6l-.962 1.648h-3.04l5.006-8.574 1.521 2.6z" class="cls-1" data-name="Path 1" transform="translate(-27.699 -229.32)"/>
            <path id="Path_2" d="M121.8 247.364l-10.82-18.527a5.142 5.142 0 0 0-4.317-2.488h-.205l.1.179 15.077 25.826.061.1a.675.675 0 0 0 .058-.1 5.129 5.129 0 0 0 .04-4.99z" class="cls-1" data-name="Path 2" transform="translate(-90.672 -226.346)"/>
        </g>
        <g id="Group_2" data-name="Group 2" transform="translate(70.035 233.341)">
            <path id="Path_3" d="M238.917 261.244h6.637c3.142 0 5.43 2.034 5.43 4.948s-2.289 4.948-5.43 4.948h-3.079v4.508h-3.558zm6.3 6.625c1.228 0 2.1-.671 2.1-1.677s-.874-1.677-2.1-1.677h-2.746v3.355z" class="cls-1" data-name="Path 3" transform="translate(-238.917 -261.244)"/>
            <path id="Path_4" d="M314.265 277.771v2.956c-2.185 0-3.516 1.258-3.516 3.25l-.021-.042v4.927h-3.516v-10.839h3.516v2.013a3.887 3.887 0 0 1 3.537-2.265z" class="cls-1" data-name="Path 4" transform="translate(-293.523 -274.458)"/>
            <path id="Path_5" d="M346.549 283.432a5.979 5.979 0 1 1 5.971 5.682 5.885 5.885 0 0 1-5.971-5.682zm8.614 0a2.644 2.644 0 1 0-2.642 2.726 2.707 2.707 0 0 0 2.642-2.726z" class="cls-1" data-name="Path 5" transform="translate(-324.975 -274.458)"/>
            <path id="Path_6" d="M420.453 273.551h-5.659l-.832 2.1h-3.995l5.659-14.4h3.995l5.659 14.4h-3.995zm-1.1-2.81l-1.727-4.424-1.727 4.424z" class="cls-1" data-name="Path 6" transform="translate(-375.682 -261.244)"/>
            <path id="Path_7" d="M503.323 279.027v10.839h-3.516v-1.236a3.817 3.817 0 0 1-3.162 1.489 3.921 3.921 0 0 1-3.953-4.193v-6.9h3.371v6.1a1.866 1.866 0 1 0 3.724.147l.021.063v-6.311z" class="cls-1" data-name="Path 7" transform="translate(-441.826 -275.463)"/>
            <path id="Path_8" d="M561.294 277.215a4.1 4.1 0 0 1-2.622 1.027 3.318 3.318 0 0 1-3.433-3.48v-4.78h-1.415v-2.83h1.415v-2.977h3.371v2.977h2.226v2.83h-2.226v4.13a1.049 1.049 0 0 0 .978 1.174 1.481 1.481 0 0 0 1-.356z" class="cls-1" data-name="Path 8" transform="translate(-490.705 -263.587)"/>
            <path id="Path_9" d="M597 283.432a5.979 5.979 0 1 1 5.971 5.682 5.885 5.885 0 0 1-5.971-5.682zm8.614 0a2.644 2.644 0 1 0-2.643 2.726 2.707 2.707 0 0 0 2.646-2.726z" class="cls-1" data-name="Path 9" transform="translate(-525.229 -274.458)"/>
            <path id="Path_10" d="M682.8 281.965v6.919h-3.371v-6.29a1.76 1.76 0 1 0-3.516-.147v6.437h-3.37v-6.29a1.76 1.76 0 1 0-3.516-.147v6.416h-3.516v-10.84h3.516v1.4a3.087 3.087 0 0 1 2.871-1.656 3.923 3.923 0 0 1 3.391 1.866 3.79 3.79 0 0 1 3.474-1.866 4.022 4.022 0 0 1 4.037 4.198z" class="cls-1" data-name="Path 10" transform="translate(-580.003 -274.458)"/>
            <path id="Path_11" d="M770.735 282.426v6.436h-3.391v-.922a4.255 4.255 0 0 1-2.975 1.174c-2.289 0-4.1-1.4-4.1-3.46 0-2.118 2.018-3.606 4.556-3.606a6.945 6.945 0 0 1 2.518.524v-.147c0-1.153-.874-1.992-2.351-1.992a5.478 5.478 0 0 0-2.7.8l-1.1-2.223a10.352 10.352 0 0 1 4.7-1.237 4.511 4.511 0 0 1 4.843 4.653zm-3.391 3.187v-1.153a5.886 5.886 0 0 0-2.018-.356 1.557 1.557 0 0 0-1.706 1.447 1.429 1.429 0 0 0 1.6 1.384 1.99 1.99 0 0 0 2.124-1.322z" class="cls-1" data-name="Path 11" transform="translate(-655.771 -274.458)"/>
        </g>
    </g>
</svg>
