<svg width="176" height="30" viewBox="0 0 176 30" fill="none" xmlns="http://www.w3.org/2000/svg">
<path fill-rule="evenodd" clip-rule="evenodd" d="M19.4003 6.24859C19.2089 5.91858 18.7332 5.91601 18.5381 6.24395L10.6799 19.4568C10.4817 19.7901 10.7219 20.2124 11.1096 20.2124H12.1533C12.3299 20.2124 12.4934 20.1193 12.5834 19.9674L16.9762 12.5585C17.9242 10.9596 20.2787 11.0087 21.1577 12.6457L28.131 25.6321C28.2181 25.7943 28.3874 25.8955 28.5715 25.8955H29.9323C30.3177 25.8955 30.5582 25.4779 30.3648 25.1446L19.4003 6.24859ZM16.6487 1.32338C17.7047 -0.452108 20.3063 -0.438324 21.3429 1.34824L35.636 25.9808C36.6742 27.77 35.3678 30 33.2816 30H27.4084C26.4041 30 25.4819 29.4517 25.011 28.5747L21.8203 22.6327L18.0634 28.7213C17.572 29.5176 16.7192 30 15.8028 30H2.04792C0.916886 30 0 29.0562 0 27.8919C0 26.7277 0.916886 25.7839 2.04792 25.7839H14.7447C14.9181 25.7839 15.0791 25.694 15.1702 25.5464L19.2231 18.9781C19.3324 18.801 19.4631 18.6464 19.6095 18.5155L18.9664 17.3179L15.6032 22.9904C15.116 23.812 14.2248 24.3169 13.2615 24.3169H7.71848C5.61935 24.3169 4.31464 22.0619 5.37866 20.2728L16.6487 1.32338Z" fill="#595EDF"/>
<path d="M51.1353 7C52.5474 7 53.7738 7.24071 54.8144 7.72214C55.8549 8.18853 56.6576 8.86554 57.2225 9.75317C57.7874 10.6258 58.0698 11.6563 58.0698 12.8449C58.0698 14.0334 57.7874 15.0639 57.2225 15.9365C56.6576 16.8091 55.8549 17.4861 54.8144 17.9676C53.7738 18.4339 52.5474 18.6671 51.1353 18.6671H48.4149V22.7969H44V7H51.1353ZM50.8677 15.1467C51.7745 15.1467 52.4583 14.9511 52.9191 14.5599C53.3799 14.1537 53.6103 13.582 53.6103 12.8449C53.6103 12.1077 53.3799 11.536 52.9191 11.1298C52.4583 10.7236 51.7745 10.5205 50.8677 10.5205H48.4149V15.1467H50.8677Z" fill="white"/>
<path d="M64.1665 12.0324C64.5976 11.4758 65.155 11.0621 65.8388 10.7913C66.5375 10.5054 67.3328 10.3625 68.2247 10.3625V14.2214C67.8382 14.1763 67.5186 14.1537 67.2659 14.1537C66.3591 14.1537 65.6456 14.402 65.1253 14.8984C64.6199 15.3949 64.3672 16.1547 64.3672 17.1777V22.7969H60.1306V10.5656H64.1665V12.0324Z" fill="white"/>
<path d="M75.9291 23C74.6358 23 73.4689 22.7292 72.4283 22.1876C71.3878 21.646 70.5702 20.8937 69.9756 19.9309C69.3958 18.968 69.106 17.8773 69.106 16.6587C69.106 15.4551 69.3958 14.3719 69.9756 13.409C70.5702 12.4462 71.3803 11.7015 72.406 11.1749C73.4466 10.6333 74.6209 10.3625 75.9291 10.3625C77.2372 10.3625 78.4115 10.6333 79.4521 11.1749C80.4927 11.7015 81.3028 12.4462 81.8825 13.409C82.4623 14.3568 82.7522 15.4401 82.7522 16.6587C82.7522 17.8773 82.4623 18.968 81.8825 19.9309C81.3028 20.8937 80.4927 21.646 79.4521 22.1876C78.4115 22.7292 77.2372 23 75.9291 23ZM75.9291 19.5924C76.6723 19.5924 77.2818 19.3366 77.7575 18.8251C78.2332 18.2985 78.471 17.5764 78.471 16.6587C78.471 15.756 78.2332 15.0489 77.7575 14.5374C77.2818 14.0259 76.6723 13.7701 75.9291 13.7701C75.1858 13.7701 74.5763 14.0259 74.1006 14.5374C73.625 15.0489 73.3871 15.756 73.3871 16.6587C73.3871 17.5764 73.625 18.2985 74.1006 18.8251C74.5763 19.3366 75.1858 19.5924 75.9291 19.5924Z" fill="white"/>
<path d="M94.8068 19.7278H88.2067L86.9803 22.7969H82.4762L89.3662 7H93.7142L100.627 22.7969H96.0332L94.8068 19.7278ZM93.5136 16.433L91.5068 11.378L89.5 16.433H93.5136Z" fill="white"/>
<path d="M114.169 10.5656V22.7969H110.134V21.488C109.688 21.9845 109.152 22.3606 108.528 22.6164C107.904 22.8721 107.242 23 106.544 23C104.983 23 103.734 22.5336 102.798 21.6008C101.876 20.6681 101.415 19.2689 101.415 17.4034V10.5656H105.652V16.7038C105.652 17.6215 105.823 18.291 106.165 18.7123C106.506 19.1335 107.004 19.3441 107.658 19.3441C108.327 19.3441 108.87 19.111 109.286 18.6446C109.717 18.1631 109.933 17.4335 109.933 16.4556V10.5656H114.169Z" fill="white"/>
<path d="M125.238 22.3004C124.881 22.5261 124.442 22.6991 123.922 22.8195C123.417 22.9398 122.874 23 122.294 23C120.719 23 119.507 22.6088 118.66 21.8265C117.812 21.0442 117.389 19.8782 117.389 18.3286V14.2214H115.627V11.0169H117.389V7.83498H121.625V11.0169H124.39V14.2214H121.625V18.2835C121.625 18.7198 121.737 19.0658 121.96 19.3216C122.198 19.5623 122.51 19.6827 122.896 19.6827C123.387 19.6827 123.818 19.5548 124.19 19.299L125.238 22.3004Z" fill="white"/>
<path d="M132.588 23C131.295 23 130.128 22.7292 129.087 22.1876C128.047 21.646 127.229 20.8937 126.634 19.9309C126.055 18.968 125.765 17.8773 125.765 16.6587C125.765 15.4551 126.055 14.3719 126.634 13.409C127.229 12.4462 128.039 11.7015 129.065 11.1749C130.105 10.6333 131.28 10.3625 132.588 10.3625C133.896 10.3625 135.07 10.6333 136.111 11.1749C137.151 11.7015 137.962 12.4462 138.541 13.409C139.121 14.3568 139.411 15.4401 139.411 16.6587C139.411 17.8773 139.121 18.968 138.541 19.9309C137.962 20.8937 137.151 21.646 136.111 22.1876C135.07 22.7292 133.896 23 132.588 23ZM132.588 19.5924C133.331 19.5924 133.941 19.3366 134.416 18.8251C134.892 18.2985 135.13 17.5764 135.13 16.6587C135.13 15.756 134.892 15.0489 134.416 14.5374C133.941 14.0259 133.331 13.7701 132.588 13.7701C131.845 13.7701 131.235 14.0259 130.759 14.5374C130.284 15.0489 130.046 15.756 130.046 16.6587C130.046 17.5764 130.284 18.2985 130.759 18.8251C131.235 19.3366 131.845 19.5924 132.588 19.5924Z" fill="white"/>
<path d="M157.116 10.3625C158.602 10.3625 159.784 10.8138 160.661 11.7165C161.553 12.6192 161.999 13.9807 161.999 15.8011V22.7969H157.762V16.5007C157.762 15.6432 157.599 15.0113 157.272 14.6051C156.96 14.1989 156.514 13.9958 155.934 13.9958C155.295 13.9958 154.782 14.2214 154.395 14.6728C154.009 15.1241 153.816 15.8087 153.816 16.7264V22.7969H149.579V16.5007C149.579 14.8307 148.97 13.9958 147.751 13.9958C147.097 13.9958 146.576 14.2214 146.19 14.6728C145.803 15.1241 145.61 15.8087 145.61 16.7264V22.7969H141.373V10.5656H145.409V11.8519C145.855 11.3554 146.383 10.9868 146.992 10.7461C147.617 10.4904 148.293 10.3625 149.022 10.3625C149.869 10.3625 150.627 10.5205 151.296 10.8364C151.965 11.1523 152.507 11.6338 152.924 12.2807C153.399 11.6638 154.001 11.1899 154.73 10.859C155.458 10.528 156.253 10.3625 157.116 10.3625Z" fill="white"/>
<path d="M169.824 10.3625C171.83 10.3625 173.361 10.8289 174.417 11.7616C175.472 12.6794 176 14.0936 176 16.0042V22.7969H172.053V21.2172C171.444 22.4057 170.255 23 168.486 23C167.549 23 166.739 22.8345 166.055 22.5035C165.371 22.1725 164.851 21.7287 164.494 21.1721C164.152 20.6004 163.982 19.9535 163.982 19.2313C163.982 18.0729 164.42 17.1777 165.297 16.5458C166.174 15.8989 167.527 15.5755 169.355 15.5755H171.763C171.689 14.2816 170.834 13.6347 169.199 13.6347C168.619 13.6347 168.032 13.7325 167.438 13.9281C166.843 14.1086 166.338 14.3644 165.921 14.6953L164.494 11.7842C165.163 11.3329 165.973 10.9868 166.925 10.7461C167.891 10.4904 168.857 10.3625 169.824 10.3625ZM169.667 20.292C170.158 20.292 170.589 20.1716 170.961 19.9309C171.332 19.6902 171.6 19.3366 171.763 18.8702V17.8096H169.935C168.701 17.8096 168.084 18.2233 168.084 19.0508C168.084 19.4269 168.226 19.7278 168.508 19.9535C168.79 20.1791 169.177 20.292 169.667 20.292Z" fill="white"/>
</svg>
