<svg xmlns="http://www.w3.org/2000/svg" width="28.19" height="15.819" viewBox="0 0 28.19 15.819">
    <defs>
        <style>
            .cls-1{fill:#f98a4c;stroke:rgba(0,0,0,0);stroke-miterlimit:10}
        </style>
    </defs>
    <g id="Group_13" data-name="Group 13" transform="translate(-1027.09 -734.71)">
        <path id="Subtraction_1" d="M13.5 14.819a14.435 14.435 0 0 1-5.544-1.139A18.737 18.737 0 0 1 3.7 11.174 20.809 20.809 0 0 1 0 7.529v-.005a21.419 21.419 0 0 1 3.7-3.759 18.615 18.615 0 0 1 4.26-2.588A14.041 14.041 0 0 1 13.5 0a14.437 14.437 0 0 1 5.547 1.139 18.748 18.748 0 0 1 4.26 2.506 20.812 20.812 0 0 1 3.7 3.645L27 7.3a21.424 21.424 0 0 1-3.694 3.759 18.624 18.624 0 0 1-4.26 2.588 14.042 14.042 0 0 1-5.546 1.172zm0-12.134A4.622 4.622 0 0 0 9 7.41a4.621 4.621 0 0 0 4.5 4.723A4.621 4.621 0 0 0 18 7.41a4.622 4.622 0 0 0-4.5-4.724z" class="cls-1" data-name="Subtraction 1" transform="translate(1027.681 735.21)"/>
    </g>
</svg>
