<svg xmlns="http://www.w3.org/2000/svg" width="24.728" height="15.895" viewBox="0 0 24.728 15.895">
    <defs>
        <style>
            .cls-1{fill:#fe4272;fill-rule:evenodd}
        </style>
    </defs>
    <g id="noun_dashboard_48832" transform="translate(-164.719 -102.177)">
        <g id="Group_11" data-name="Group 11" transform="translate(164.719 102.177)">
            <g id="Group_10" data-name="Group 10" transform="translate(11.431 10.857)">
                <path id="Path_30" d="M47.093 61.346l-.027.016z" class="cls-1" data-name="Path 30" transform="translate(-46.939 -61.139)"/>
                <path id="Path_31" d="M46.618 61.69l-.013.01z" class="cls-1" data-name="Path 31" transform="translate(-46.605 -61.388)"/>
                <path id="Path_32" d="M47.6 61.064l-.037.018z" class="cls-1" data-name="Path 32" transform="translate(-47.297 -60.934)"/>
                <path id="Path_33" d="M49.276 60.591l-.047.007z" class="cls-1" data-name="Path 33" transform="translate(-48.508 -60.591)"/>
                <path id="Path_34" d="M48.682 60.688l-.049.013z" class="cls-1" data-name="Path 34" transform="translate(-48.076 -60.661)"/>
                <path id="Path_35" d="M48.127 60.846l-.045.016z" class="cls-1" data-name="Path 35" transform="translate(-47.676 -60.776)"/>
            </g>
            <path id="Path_36" d="M29.728 33.439a12.364 12.364 0 0 0-24.728 0h8.829a3.545 3.545 0 1 0 2.562-3.4l8.026-5.2-3.437 8.6h8.749zm-10.852 0a1.514 1.514 0 1 1-3.006-.251v-.031a1.479 1.479 0 0 1 .062-.226l.012-.034a1.529 1.529 0 0 1 .1-.21l.014-.024a1.547 1.547 0 0 1 .138-.2 1.513 1.513 0 0 1 2.675.974zm-4.22-2.269h.005z" class="cls-1" data-name="Path 36" transform="translate(-5 -21.075)"/>
        </g>
    </g>
</svg>
