<svg xmlns="http://www.w3.org/2000/svg" width="31.34" height="52.369" viewBox="0 0 31.34 52.369">
    <defs>
        <style>
            .cls-1{fill:#3173bf;stroke:rgba(0,0,0,0)}
        </style>
    </defs>
    <path id="Path_46" d="M1105.157 790.257a22.183 22.183 0 0 1 .216-3.143 11.089 11.089 0 0 1 .82-2.895 9.5 9.5 0 0 1 1.715-2.607 11.091 11.091 0 0 1 2.963-2.215q.93-.5 2.5-1.321a22.017 22.017 0 0 0 3-1.893 12.94 12.94 0 0 0 2.5-2.465 4.97 4.97 0 0 0 1.072-3.108 4.422 4.422 0 0 0-1.679-3.68 6.115 6.115 0 0 0-3.892-1.321 5.989 5.989 0 0 0-2.572.536 8.456 8.456 0 0 0-2 1.286 10.393 10.393 0 0 0-1.536 1.679q-.68.93-1.18 1.644l-7.359-5.144a14.241 14.241 0 0 1 5.893-6.786 17.329 17.329 0 0 1 9.109-2.429 19.473 19.473 0 0 1 5.431.785 14.247 14.247 0 0 1 4.895 2.5 12.858 12.858 0 0 1 3.536 4.431 14.576 14.576 0 0 1 1.357 6.572 12.656 12.656 0 0 1-1.715 6.823 15.449 15.449 0 0 1-5 4.823 30.987 30.987 0 0 1-3.036 1.785 25.389 25.389 0 0 0-2.787 1.642 8.961 8.961 0 0 0-2.072 1.93 4.1 4.1 0 0 0-.822 2.572zm.216 17.5v-10.714h9.357v10.718z" class="cls-1" data-name="Path 46" transform="translate(-1099.109 -755.892)"/>
</svg>
