<svg xmlns="http://www.w3.org/2000/svg" width="19.994" height="20.351" viewBox="0 0 19.994 20.351">
    <defs>
        <style>
            .cls-1{fill:#23c337}
        </style>
    </defs>
    <path id="Path_37" d="M914.711 753.94a16.082 16.082 0 0 1-7.679-1.967l-.766-.453-.766.453a16.084 16.084 0 0 1-7.679 1.967h-1.552l.048 1.551a41.765 41.765 0 0 0 1.189 8.2 11.3 11.3 0 0 0 8.46 8.12l.3.061.3-.061a11.3 11.3 0 0 0 8.46-8.121 41.76 41.76 0 0 0 1.189-8.2l.048-1.551zm-14.293 8.99a37.963 37.963 0 0 1-1-6.051 33.2 33.2 0 0 0 6.843-1.388v13.135c-2.321-.268-5.055-2.675-5.843-5.696z" class="cls-1" data-name="Path 37" transform="translate(-896.269 -751.52)"/>
</svg>
