<svg xmlns="http://www.w3.org/2000/svg" id="Group_19" width="24.337" height="15.376" data-name="Group 19" viewBox="0 0 24.337 15.376">
    <defs>
        <style>
            .cls-1{fill:#3173bf}
        </style>
    </defs>
    <path id="Path_469" d="M1110.386 824.512a4.715 4.715 0 0 1-4.7 4.095h-14.858a4.61 4.61 0 0 1-4.7-4.323 4.5 4.5 0 0 1 3.183-4.849 5.767 5.767 0 0 1 4.625-5.989 5.879 5.879 0 0 1 6.822 3.029 4.708 4.708 0 0 1 3.788-.074 4.779 4.779 0 0 1 2.806 3.108 4.613 4.613 0 0 1 3.034 5.003z" class="cls-1" data-name="Path 469" transform="translate(-1086.095 -813.232)"/>
</svg>
