<svg xmlns="http://www.w3.org/2000/svg" width="24.728" height="15.895" viewBox="0 0 24.728 15.895">
    <defs>
        <style>
            .cls-1{fill:#fe4272;fill-rule:evenodd}
        </style>
    </defs>
    <path id="Path_36" d="M29.728 33.439a12.364 12.364 0 0 0-24.728 0h8.829a3.545 3.545 0 1 0 2.562-3.4l8.026-5.2-3.437 8.6h8.749zm-10.852 0a1.514 1.514 0 1 1-3.006-.251v-.031a1.479 1.479 0 0 1 .062-.226l.012-.034a1.529 1.529 0 0 1 .1-.21l.014-.024a1.547 1.547 0 0 1 .138-.2 1.513 1.513 0 0 1 2.675.974zm-4.22-2.269h.005z" class="cls-1" data-name="Path 36" transform="translate(-5 -21.075)"/>
</svg>
