<svg xmlns="http://www.w3.org/2000/svg" id="twitter" width="16.535" height="13.434" viewBox="0 0 16.535 13.434">
    <g id="Group_784" data-name="Group 784">
        <path id="Path_457" d="M16.535 49.59a7.068 7.068 0 0 1-1.953.535 3.371 3.371 0 0 0 1.491-1.873 6.774 6.774 0 0 1-2.15.82A3.39 3.39 0 0 0 8.06 51.39a3.49 3.49 0 0 0 .079.773 9.6 9.6 0 0 1-6.987-3.545 3.39 3.39 0 0 0 1.042 4.53 3.348 3.348 0 0 1-1.532-.417v.037A3.405 3.405 0 0 0 3.377 56.1a3.384 3.384 0 0 1-.889.112 3 3 0 0 1-.642-.058 3.422 3.422 0 0 0 3.167 2.361 6.811 6.811 0 0 1-4.2 1.446A6.349 6.349 0 0 1 0 59.913a9.543 9.543 0 0 0 5.2 1.521 9.581 9.581 0 0 0 9.648-9.645c0-.15-.005-.295-.012-.438a6.762 6.762 0 0 0 1.699-1.761z" fill="#ffffff" data-name="Path 457" transform="translate(0 -48)"/>
    </g>
</svg>
