<svg xmlns="http://www.w3.org/2000/svg" id="youtube" width="17.439" height="11.989" viewBox="0 0 17.439 11.989">
    <defs>
        <style>
            .cls-1{fill:#626f7e}
        </style>
    </defs>
    <g id="Group_785" data-name="Group 785">
        <path id="Path_458" d="M16.7 81.155c-.473-.841-.986-1-2.032-1.055S11 80 8.722 80s-4.906.029-5.949.1-1.557.214-2.035 1.056S0 83.443 0 85.991V86c0 2.537.251 4 .738 4.827s.991.994 2.034 1.065 3.671.1 5.95.1 4.9-.036 5.946-.1 1.559-.223 2.032-1.065c.492-.832.74-2.29.74-4.827v-.009c-.001-2.548-.25-3.991-.74-4.836zM6.54 89.264v-6.539l5.45 3.27z" class="cls-1" data-name="Path 458" transform="translate(0 -80)"/>
    </g>
</svg>
