<svg width="56" height="48" viewBox="0 0 56 48" fill="none" xmlns="http://www.w3.org/2000/svg">
<path fill-rule="evenodd" clip-rule="evenodd" d="M47.6387 41.009L29.1202 8.72969L15.4314 32.009H18.888L25.9934 19.8881C27.4777 17.356 31.1643 17.4337 32.5406 20.0262L43.6805 41.009H47.6387ZM25.4806 2.09574C27.134 -0.715974 31.2075 -0.694146 32.8306 2.13511L55.21 41.1441C56.8354 43.9775 54.79 47.509 51.5235 47.509H42.3276C40.7551 47.509 39.3112 46.6408 38.5738 45.2519L34.1455 36.9109L28.6661 45.5377C27.8864 46.7654 26.533 47.5091 25.0786 47.5091H3.25C1.45507 47.5091 0 46.054 0 44.2591C0 42.4642 1.45507 41.0091 3.25 41.0091H23.8422L30.5066 30.5166C30.5504 30.4476 30.5964 30.3808 30.6444 30.3163L29.1096 27.4252L23.8436 36.4083C23.0808 37.7096 21.6855 38.509 20.1772 38.509H11.4982C8.21149 38.509 6.16865 34.938 7.83464 32.1048L25.4806 2.09574Z" fill="#595EDF"/>
</svg>
