<svg width="182" height="32" viewBox="0 0 182 32" fill="none" xmlns="http://www.w3.org/2000/svg">
<path fill-rule="evenodd" clip-rule="evenodd" d="M19.5919 6.49154C19.4009 6.15868 18.9217 6.15612 18.7272 6.48691L10.5982 20.3112C10.4022 20.6445 10.6426 21.0646 11.0292 21.0646H12.1434C12.3209 21.0646 12.485 20.9706 12.5748 20.8175L17.1058 13.0881C18.0826 11.4217 20.5087 11.4728 21.4145 13.1789L28.6044 26.7218C28.6912 26.8852 28.8611 26.9874 29.0461 26.9874H30.487C30.8713 26.9874 31.1119 26.5719 30.9207 26.2385L19.5919 6.49154ZM16.7684 1.37917C17.8564 -0.47117 20.5371 -0.456806 21.6053 1.40508L36.3328 27.0763C37.4025 28.9408 36.0564 31.2649 33.9068 31.2649H27.8551C26.8203 31.2649 25.87 30.6935 25.3848 29.7795L22.4706 24.2904L18.8648 29.9675C18.3516 30.7754 17.461 31.2648 16.5039 31.2648H2.13886C0.957649 31.2648 8.96454e-05 30.3073 8.96454e-05 29.126C8.96454e-05 27.9448 0.957649 26.9873 2.13886 26.9873H15.4155C15.5866 26.9873 15.7458 26.8998 15.8376 26.7554L20.076 20.0823C20.1048 20.037 20.135 19.9931 20.1666 19.9506L19.1565 18.0481L15.6911 23.9597C15.1891 24.816 14.2709 25.3421 13.2783 25.3421H7.5668C5.40387 25.3421 4.05951 22.9921 5.15587 21.1276L16.7684 1.37917Z" fill="#595EDF"/>
<path d="M52.4055 8C53.8712 8 55.144 8.24071 56.224 8.72214C57.304 9.18853 58.1371 9.86554 58.7234 10.7532C59.3097 11.6258 59.6028 12.6563 59.6028 13.8449C59.6028 15.0334 59.3097 16.0639 58.7234 16.9365C58.1371 17.8091 57.304 18.4861 56.224 18.9676C55.144 19.4339 53.8712 19.6671 52.4055 19.6671H49.5822V23.7969H45V8H52.4055ZM52.1278 16.1467C53.0689 16.1467 53.7786 15.9511 54.2569 15.5599C54.7352 15.1537 54.9743 14.582 54.9743 13.8449C54.9743 13.1077 54.7352 12.536 54.2569 12.1298C53.7786 11.7236 53.0689 11.5205 52.1278 11.5205H49.5822V16.1467H52.1278Z" fill="black"/>
<path d="M65.9304 13.0324C66.3778 12.4758 66.9564 12.0621 67.6661 11.7913C68.3912 11.5054 69.2166 11.3625 70.1423 11.3625V15.2214C69.7412 15.1763 69.4095 15.1537 69.1472 15.1537C68.2061 15.1537 67.4655 15.402 66.9255 15.8984C66.401 16.3949 66.1387 17.1547 66.1387 18.1777V23.7969H61.7416V11.5656H65.9304V13.0324Z" fill="black"/>
<path d="M78.1385 24C76.7962 24 75.5851 23.7292 74.5052 23.1876C73.4252 22.646 72.5766 21.8937 71.9595 20.9309C71.3578 19.968 71.057 18.8773 71.057 17.6587C71.057 16.4551 71.3578 15.3719 71.9595 14.409C72.5766 13.4462 73.4175 12.7015 74.482 12.1749C75.562 11.6333 76.7808 11.3625 78.1385 11.3625C79.4962 11.3625 80.715 11.6333 81.795 12.1749C82.875 12.7015 83.7158 13.4462 84.3175 14.409C84.9192 15.3568 85.22 16.4401 85.22 17.6587C85.22 18.8773 84.9192 19.968 84.3175 20.9309C83.7158 21.8937 82.875 22.646 81.795 23.1876C80.715 23.7292 79.4962 24 78.1385 24ZM78.1385 20.5924C78.9099 20.5924 79.5425 20.3366 80.0362 19.8251C80.5299 19.2985 80.7767 18.5764 80.7767 17.6587C80.7767 16.756 80.5299 16.0489 80.0362 15.5374C79.5425 15.0259 78.9099 14.7701 78.1385 14.7701C77.3671 14.7701 76.7345 15.0259 76.2408 15.5374C75.7471 16.0489 75.5003 16.756 75.5003 17.6587C75.5003 18.5764 75.7471 19.2985 76.2408 19.8251C76.7345 20.3366 77.3671 20.5924 78.1385 20.5924Z" fill="black"/>
<path d="M97.7313 20.7278H90.8812L89.6084 23.7969H84.9337L92.0846 8H96.5974L103.771 23.7969H99.0042L97.7313 20.7278ZM96.3891 17.433L94.3063 12.378L92.2235 17.433H96.3891Z" fill="black"/>
<path d="M117.827 11.5656V23.7969H113.639V22.488C113.176 22.9845 112.62 23.3606 111.972 23.6164C111.324 23.8721 110.638 24 109.913 24C108.293 24 106.997 23.5336 106.025 22.6008C105.068 21.6681 104.59 20.2689 104.59 18.4034V11.5656H108.987V17.7038C108.987 18.6215 109.164 19.291 109.519 19.7123C109.874 20.1335 110.391 20.3441 111.07 20.3441C111.764 20.3441 112.327 20.111 112.759 19.6446C113.207 19.1631 113.43 18.4335 113.43 17.4556V11.5656H117.827Z" fill="black"/>
<path d="M129.315 23.3004C128.944 23.5261 128.489 23.6991 127.949 23.8195C127.425 23.9398 126.862 24 126.26 24C124.625 24 123.367 23.6088 122.488 22.8265C121.608 22.0442 121.169 20.8782 121.169 19.3286V15.2214H119.34V12.0169H121.169V8.83498H125.566V12.0169H128.435V15.2214H125.566V19.2835C125.566 19.7198 125.681 20.0658 125.913 20.3216C126.16 20.5623 126.484 20.6827 126.885 20.6827C127.394 20.6827 127.841 20.5548 128.227 20.299L129.315 23.3004Z" fill="black"/>
<path d="M136.943 24C135.601 24 134.39 23.7292 133.31 23.1876C132.23 22.646 131.382 21.8937 130.764 20.9309C130.163 19.968 129.862 18.8773 129.862 17.6587C129.862 16.4551 130.163 15.3719 130.764 14.409C131.382 13.4462 132.222 12.7015 133.287 12.1749C134.367 11.6333 135.586 11.3625 136.943 11.3625C138.301 11.3625 139.52 11.6333 140.6 12.1749C141.68 12.7015 142.521 13.4462 143.122 14.409C143.724 15.3568 144.025 16.4401 144.025 17.6587C144.025 18.8773 143.724 19.968 143.122 20.9309C142.521 21.8937 141.68 22.646 140.6 23.1876C139.52 23.7292 138.301 24 136.943 24ZM136.943 20.5924C137.715 20.5924 138.347 20.3366 138.841 19.8251C139.335 19.2985 139.582 18.5764 139.582 17.6587C139.582 16.756 139.335 16.0489 138.841 15.5374C138.347 15.0259 137.715 14.7701 136.943 14.7701C136.172 14.7701 135.539 15.0259 135.046 15.5374C134.552 16.0489 134.305 16.756 134.305 17.6587C134.305 18.5764 134.552 19.2985 135.046 19.8251C135.539 20.3366 136.172 20.5924 136.943 20.5924Z" fill="black"/>
<path d="M162.4 11.3625C163.943 11.3625 165.17 11.8138 166.08 12.7165C167.006 13.6192 167.468 14.9807 167.468 16.8011V23.7969H163.071V17.5007C163.071 16.6432 162.902 16.0113 162.562 15.6051C162.238 15.1989 161.775 14.9958 161.174 14.9958C160.51 14.9958 159.978 15.2214 159.577 15.6728C159.176 16.1241 158.975 16.8087 158.975 17.7264V23.7969H154.578V17.5007C154.578 15.8307 153.946 14.9958 152.681 14.9958C152.002 14.9958 151.462 15.2214 151.061 15.6728C150.659 16.1241 150.459 16.8087 150.459 17.7264V23.7969H146.062V11.5656H150.251V12.8519C150.713 12.3554 151.261 11.9868 151.894 11.7461C152.542 11.4904 153.244 11.3625 154 11.3625C154.879 11.3625 155.666 11.5205 156.36 11.8364C157.054 12.1523 157.618 12.6338 158.05 13.2807C158.543 12.6638 159.168 12.1899 159.924 11.859C160.68 11.528 161.505 11.3625 162.4 11.3625Z" fill="black"/>
<path d="M175.59 11.3625C177.672 11.3625 179.261 11.8289 180.357 12.7616C181.452 13.6794 182 15.0936 182 17.0042V23.7969H177.904V22.2172C177.271 23.4057 176.037 24 174.201 24C173.229 24 172.388 23.8345 171.679 23.5035C170.969 23.1725 170.429 22.7287 170.059 22.1721C169.704 21.6004 169.526 20.9535 169.526 20.2313C169.526 19.0729 169.981 18.1777 170.892 17.5458C171.802 16.8989 173.206 16.5755 175.104 16.5755H177.603C177.526 15.2816 176.639 14.6347 174.942 14.6347C174.34 14.6347 173.73 14.7325 173.113 14.9281C172.496 15.1086 171.972 15.3644 171.54 15.6953L170.059 12.7842C170.753 12.3329 171.594 11.9868 172.581 11.7461C173.584 11.4904 174.587 11.3625 175.59 11.3625ZM175.428 21.292C175.937 21.292 176.384 21.1716 176.77 20.9309C177.156 20.6902 177.433 20.3366 177.603 19.8702V18.8096H175.705C174.425 18.8096 173.784 19.2233 173.784 20.0508C173.784 20.4269 173.931 20.7278 174.224 20.9535C174.517 21.1791 174.918 21.292 175.428 21.292Z" fill="black"/>
</svg>
